<svg width="30" height="30" viewBox="0 0 30 30" fill="none" xmlns="http://www.w3.org/2000/svg">
<circle cx="15" cy="15" r="14.5" stroke="white"/>
<path d="M10.3962 23H8.12703C7.52756 23 7.06279 22.4762 7.13413 21.881L8.01887 14.5M22.6226 6L21.6038 14.5M25 23H20.5849L21.6038 14.5M8.01887 14.5L8.93214 6.88099C8.99239 6.37833 9.41878 6 9.92503 6H12.0943M8.01887 14.5H12.7736M21.6038 14.5H17.8679M17.5 10.5H14.125V10.5C13.3786 10.5 12.7736 11.105 12.7736 11.8514V14.5M12.7736 14.5H17.8679M17.8679 14.5V17.1117C17.8679 17.6168 17.6691 18.1016 17.3144 18.4612V18.4612C16.9533 18.8273 16.4605 19.0333 15.9463 19.0333H12.7736" stroke="white"/>
</svg>
